solid box_female_sw
   facet normal -1.000000e+000 0.000000e+000 0.000000e+000
      outer loop
         vertex 0.000000e+000 7.500000e-002 1.000000e-002
         vertex 0.000000e+000 7.500000e-002 0.000000e+000
         vertex 0.000000e+000 0.000000e+000 1.000000e-002
      endloop
   endfacet
   facet normal -1.000000e+000 0.000000e+000 0.000000e+000
      outer loop
         vertex 0.000000e+000 0.000000e+000 1.000000e-002
         vertex 0.000000e+000 7.500000e-002 0.000000e+000
         vertex 0.000000e+000 0.000000e+000 0.000000e+000
      endloop
   endfacet
   facet normal 0.000000e+000 1.000000e+000 0.000000e+000
      outer loop
         vertex 4.500000e-002 7.500000e-002 1.000000e-002
         vertex 4.500000e-002 7.500000e-002 0.000000e+000
         vertex 0.000000e+000 7.500000e-002 1.000000e-002
      endloop
   endfacet
   facet normal 0.000000e+000 1.000000e+000 0.000000e+000
      outer loop
         vertex 0.000000e+000 7.500000e-002 1.000000e-002
         vertex 4.500000e-002 7.500000e-002 0.000000e+000
         vertex 0.000000e+000 7.500000e-002 0.000000e+000
      endloop
   endfacet
   facet normal 1.000000e+000 0.000000e+000 0.000000e+000
      outer loop
         vertex 4.500000e-002 0.000000e+000 1.000000e-002
         vertex 4.500000e-002 0.000000e+000 0.000000e+000
         vertex 4.500000e-002 7.500000e-002 1.000000e-002
      endloop
   endfacet
   facet normal 1.000000e+000 0.000000e+000 0.000000e+000
      outer loop
         vertex 4.500000e-002 7.500000e-002 1.000000e-002
         vertex 4.500000e-002 0.000000e+000 0.000000e+000
         vertex 4.500000e-002 7.500000e-002 0.000000e+000
      endloop
   endfacet
   facet normal 0.000000e+000 -1.000000e+000 0.000000e+000
      outer loop
         vertex 0.000000e+000 0.000000e+000 1.000000e-002
         vertex 0.000000e+000 0.000000e+000 0.000000e+000
         vertex 4.500000e-002 0.000000e+000 1.000000e-002
      endloop
   endfacet
   facet normal 0.000000e+000 -1.000000e+000 0.000000e+000
      outer loop
         vertex 4.500000e-002 0.000000e+000 1.000000e-002
         vertex 0.000000e+000 0.000000e+000 0.000000e+000
         vertex 4.500000e-002 0.000000e+000 0.000000e+000
      endloop
   endfacet
   facet normal 0.000000e+000 0.000000e+000 -1.000000e+000
      outer loop
         vertex 4.500000e-002 7.500000e-002 0.000000e+000
         vertex 4.500000e-002 0.000000e+000 0.000000e+000
         vertex 0.000000e+000 7.500000e-002 0.000000e+000
      endloop
   endfacet
   facet normal 0.000000e+000 0.000000e+000 -1.000000e+000
      outer loop
         vertex 0.000000e+000 7.500000e-002 0.000000e+000
         vertex 4.500000e-002 0.000000e+000 0.000000e+000
         vertex 0.000000e+000 0.000000e+000 0.000000e+000
      endloop
   endfacet
   facet normal 0.000000e+000 0.000000e+000 1.000000e+000
      outer loop
         vertex 4.100000e-002 7.100000e-002 1.000000e-002
         vertex 4.500000e-002 7.500000e-002 1.000000e-002
         vertex 0.000000e+000 7.500000e-002 1.000000e-002
      endloop
   endfacet
   facet normal 0.000000e+000 0.000000e+000 1.000000e+000
      outer loop
         vertex 4.500000e-002 7.500000e-002 1.000000e-002
         vertex 4.100000e-002 7.100000e-002 1.000000e-002
         vertex 4.500000e-002 0.000000e+000 1.000000e-002
      endloop
   endfacet
   facet normal 0.000000e+000 0.000000e+000 1.000000e+000
      outer loop
         vertex 4.500000e-002 0.000000e+000 1.000000e-002
         vertex 4.100000e-002 7.100000e-002 1.000000e-002
         vertex 4.100000e-002 4.000001e-003 1.000000e-002
      endloop
   endfacet
   facet normal 0.000000e+000 0.000000e+000 1.000000e+000
      outer loop
         vertex 4.500000e-002 0.000000e+000 1.000000e-002
         vertex 4.100000e-002 4.000001e-003 1.000000e-002
         vertex 0.000000e+000 0.000000e+000 1.000000e-002
      endloop
   endfacet
   facet normal 0.000000e+000 0.000000e+000 1.000000e+000
      outer loop
         vertex 0.000000e+000 0.000000e+000 1.000000e-002
         vertex 4.100000e-002 4.000001e-003 1.000000e-002
         vertex 4.000001e-003 4.000001e-003 1.000000e-002
      endloop
   endfacet
   facet normal 0.000000e+000 0.000000e+000 1.000000e+000
      outer loop
         vertex 0.000000e+000 0.000000e+000 1.000000e-002
         vertex 4.000001e-003 4.000001e-003 1.000000e-002
         vertex 0.000000e+000 7.500000e-002 1.000000e-002
      endloop
   endfacet
   facet normal 0.000000e+000 0.000000e+000 1.000000e+000
      outer loop
         vertex 0.000000e+000 7.500000e-002 1.000000e-002
         vertex 4.000001e-003 4.000001e-003 1.000000e-002
         vertex 4.000001e-003 7.100000e-002 1.000000e-002
      endloop
   endfacet
   facet normal 0.000000e+000 0.000000e+000 1.000000e+000
      outer loop
         vertex 0.000000e+000 7.500000e-002 1.000000e-002
         vertex 4.000001e-003 7.100000e-002 1.000000e-002
         vertex 4.100000e-002 7.100000e-002 1.000000e-002
      endloop
   endfacet
   facet normal -1.000000e+000 0.000000e+000 0.000000e+000
      outer loop
         vertex 4.000001e-003 7.100000e-002 1.000000e-002
         vertex 4.000001e-003 4.000001e-003 1.000000e-002
         vertex 4.000001e-003 7.100000e-002 1.800000e-002
      endloop
   endfacet
   facet normal -1.000000e+000 0.000000e+000 0.000000e+000
      outer loop
         vertex 4.000001e-003 7.100000e-002 1.800000e-002
         vertex 4.000001e-003 4.000001e-003 1.000000e-002
         vertex 4.000001e-003 4.000001e-003 1.800000e-002
      endloop
   endfacet
   facet normal 0.000000e+000 1.000000e+000 0.000000e+000
      outer loop
         vertex 4.100000e-002 7.100000e-002 1.000000e-002
         vertex 4.000001e-003 7.100000e-002 1.000000e-002
         vertex 4.100000e-002 7.100000e-002 1.800000e-002
      endloop
   endfacet
   facet normal 0.000000e+000 1.000000e+000 0.000000e+000
      outer loop
         vertex 4.100000e-002 7.100000e-002 1.800000e-002
         vertex 4.000001e-003 7.100000e-002 1.000000e-002
         vertex 4.000001e-003 7.100000e-002 1.800000e-002
      endloop
   endfacet
   facet normal 1.000000e+000 0.000000e+000 0.000000e+000
      outer loop
         vertex 4.100000e-002 4.000001e-003 1.000000e-002
         vertex 4.100000e-002 7.100000e-002 1.000000e-002
         vertex 4.100000e-002 4.000001e-003 1.800000e-002
      endloop
   endfacet
   facet normal 1.000000e+000 0.000000e+000 0.000000e+000
      outer loop
         vertex 4.100000e-002 4.000001e-003 1.800000e-002
         vertex 4.100000e-002 7.100000e-002 1.000000e-002
         vertex 4.100000e-002 7.100000e-002 1.800000e-002
      endloop
   endfacet
   facet normal 0.000000e+000 -1.000000e+000 0.000000e+000
      outer loop
         vertex 4.000001e-003 4.000001e-003 1.000000e-002
         vertex 4.100000e-002 4.000001e-003 1.000000e-002
         vertex 4.000001e-003 4.000001e-003 1.800000e-002
      endloop
   endfacet
   facet normal 0.000000e+000 -1.000000e+000 0.000000e+000
      outer loop
         vertex 4.000001e-003 4.000001e-003 1.800000e-002
         vertex 4.100000e-002 4.000001e-003 1.000000e-002
         vertex 4.100000e-002 4.000001e-003 1.800000e-002
      endloop
   endfacet
   facet normal 0.000000e+000 0.000000e+000 1.000000e+000
      outer loop
         vertex 5.000001e-003 7.000000e-002 1.800000e-002
         vertex 4.000001e-003 7.100000e-002 1.800000e-002
         vertex 5.000001e-003 5.000003e-003 1.800000e-002
      endloop
   endfacet
   facet normal 0.000000e+000 0.000000e+000 1.000000e+000
      outer loop
         vertex 5.000001e-003 5.000003e-003 1.800000e-002
         vertex 4.000001e-003 7.100000e-002 1.800000e-002
         vertex 4.000001e-003 4.000001e-003 1.800000e-002
      endloop
   endfacet
   facet normal 0.000000e+000 0.000000e+000 1.000000e+000
      outer loop
         vertex 5.000001e-003 5.000003e-003 1.800000e-002
         vertex 4.000001e-003 4.000001e-003 1.800000e-002
         vertex 4.000000e-002 5.000003e-003 1.800000e-002
      endloop
   endfacet
   facet normal 0.000000e+000 0.000000e+000 1.000000e+000
      outer loop
         vertex 4.000000e-002 5.000003e-003 1.800000e-002
         vertex 4.000001e-003 4.000001e-003 1.800000e-002
         vertex 4.100000e-002 4.000001e-003 1.800000e-002
      endloop
   endfacet
   facet normal 0.000000e+000 0.000000e+000 1.000000e+000
      outer loop
         vertex 4.000000e-002 5.000003e-003 1.800000e-002
         vertex 4.100000e-002 4.000001e-003 1.800000e-002
         vertex 4.000000e-002 7.000000e-002 1.800000e-002
      endloop
   endfacet
   facet normal 0.000000e+000 0.000000e+000 1.000000e+000
      outer loop
         vertex 4.000000e-002 7.000000e-002 1.800000e-002
         vertex 4.100000e-002 4.000001e-003 1.800000e-002
         vertex 4.100000e-002 7.100000e-002 1.800000e-002
      endloop
   endfacet
   facet normal 0.000000e+000 0.000000e+000 1.000000e+000
      outer loop
         vertex 4.000000e-002 7.000000e-002 1.800000e-002
         vertex 4.100000e-002 7.100000e-002 1.800000e-002
         vertex 5.000001e-003 7.000000e-002 1.800000e-002
      endloop
   endfacet
   facet normal 0.000000e+000 0.000000e+000 1.000000e+000
      outer loop
         vertex 5.000001e-003 7.000000e-002 1.800000e-002
         vertex 4.100000e-002 7.100000e-002 1.800000e-002
         vertex 4.000001e-003 7.100000e-002 1.800000e-002
      endloop
   endfacet
   facet normal 0.000000e+000 -1.000000e+000 0.000000e+000
      outer loop
         vertex 5.000001e-003 7.000000e-002 1.999999e-003
         vertex 4.000000e-002 7.000000e-002 1.999999e-003
         vertex 5.000001e-003 7.000000e-002 1.800000e-002
      endloop
   endfacet
   facet normal 0.000000e+000 -1.000000e+000 0.000000e+000
      outer loop
         vertex 5.000001e-003 7.000000e-002 1.800000e-002
         vertex 4.000000e-002 7.000000e-002 1.999999e-003
         vertex 4.000000e-002 7.000000e-002 1.800000e-002
      endloop
   endfacet
   facet normal -1.000000e+000 -5.337611e-017 0.000000e+000
      outer loop
         vertex 4.000000e-002 7.000000e-002 1.999999e-003
         vertex 4.000000e-002 5.000003e-003 1.999999e-003
         vertex 4.000000e-002 7.000000e-002 1.800000e-002
      endloop
   endfacet
   facet normal -1.000000e+000 -5.337611e-017 0.000000e+000
      outer loop
         vertex 4.000000e-002 7.000000e-002 1.800000e-002
         vertex 4.000000e-002 5.000003e-003 1.999999e-003
         vertex 4.000000e-002 5.000003e-003 1.800000e-002
      endloop
   endfacet
   facet normal 0.000000e+000 1.000000e+000 0.000000e+000
      outer loop
         vertex 4.000000e-002 5.000003e-003 1.999999e-003
         vertex 5.000001e-003 5.000003e-003 1.999999e-003
         vertex 4.000000e-002 5.000003e-003 1.800000e-002
      endloop
   endfacet
   facet normal 0.000000e+000 1.000000e+000 0.000000e+000
      outer loop
         vertex 4.000000e-002 5.000003e-003 1.800000e-002
         vertex 5.000001e-003 5.000003e-003 1.999999e-003
         vertex 5.000001e-003 5.000003e-003 1.800000e-002
      endloop
   endfacet
   facet normal 1.000000e+000 0.000000e+000 0.000000e+000
      outer loop
         vertex 5.000001e-003 5.000003e-003 1.999999e-003
         vertex 5.000001e-003 7.000000e-002 1.999999e-003
         vertex 5.000001e-003 5.000003e-003 1.800000e-002
      endloop
   endfacet
   facet normal 1.000000e+000 0.000000e+000 0.000000e+000
      outer loop
         vertex 5.000001e-003 5.000003e-003 1.800000e-002
         vertex 5.000001e-003 7.000000e-002 1.999999e-003
         vertex 5.000001e-003 7.000000e-002 1.800000e-002
      endloop
   endfacet
   facet normal 0.000000e+000 0.000000e+000 1.000000e+000
      outer loop
         vertex 5.000001e-003 5.000003e-003 1.999999e-003
         vertex 4.000000e-002 5.000003e-003 1.999999e-003
         vertex 5.000001e-003 7.000000e-002 1.999999e-003
      endloop
   endfacet
   facet normal 0.000000e+000 0.000000e+000 1.000000e+000
      outer loop
         vertex 5.000001e-003 7.000000e-002 1.999999e-003
         vertex 4.000000e-002 5.000003e-003 1.999999e-003
         vertex 4.000000e-002 7.000000e-002 1.999999e-003
      endloop
   endfacet
endsolid